<?xml version="1.0" encoding="UTF-8" standalone="no"?>
<svg
   xmlns:dc="http://purl.org/dc/elements/1.1/"
   xmlns:cc="http://creativecommons.org/ns#"
   xmlns:rdf="http://www.w3.org/1999/02/22-rdf-syntax-ns#"
   xmlns:svg="http://www.w3.org/2000/svg"
   xmlns="http://www.w3.org/2000/svg"
   viewBox="0 0 1600 1066.6667"
   height="1066.6667"
   width="1600"
   xml:space="preserve"
   id="svg2"
   version="1.1"><metadata
     id="metadata8"><rdf:RDF><cc:Work
         rdf:about=""><dc:format>image/svg+xml</dc:format><dc:type
           rdf:resource="http://purl.org/dc/dcmitype/StillImage" /></cc:Work></rdf:RDF></metadata><defs
     id="defs6"><clipPath
       id="clipPath22"
       clipPathUnits="userSpaceOnUse"><path
         id="path20"
         d="M 0,800 H 1200 V 0 H 0 Z" /></clipPath></defs><g
     transform="matrix(1.3333333,0,0,-1.3333333,0,1066.6667)"
     id="g10"><text
       id="text14"
       style="font-variant:normal;font-weight:normal;font-stretch:normal;font-size:45.85630035px;font-family:'Myriad Pro';-inkscape-font-specification:MyriadPro-Regular;writing-mode:lr-tb;fill:#231f20;fill-opacity:1;fill-rule:nonzero;stroke:none"
       transform="matrix(1,0,0,-1,677.5293,293.6318)"><tspan
         id="tspan12"
         y="0"
         x="0 34.942501 75.387756 116.38329 148.4827 190.62463 230.79475 266.24167 304.85269 339.7952 379.91943">PHOTOGRAPHY</tspan></text>
<g
       id="g16"><g
         clip-path="url(#clipPath22)"
         id="g18"><g
           transform="translate(297.2697,472.4284)"
           id="g24"><path
             id="path26"
             style="fill:#231f20;fill-opacity:1;fill-rule:nonzero;stroke:none"
             d="m 0,0 c 1.162,2.328 2.458,4.289 4.326,6.109 -2.261,1.745 -4.522,3.49 -6.784,5.234 -5.163,-8.744 -8.675,-18.708 -13.147,-27.846 -4.547,-9.289 -9.388,-18.434 -14.144,-27.617 -9.646,-18.626 -18.54,-37.675 -26.467,-57.096 -7.979,-19.55 -14.488,-39.849 -18.503,-60.592 -1.907,-9.849 -3.326,-19.788 -4.23,-29.78 -0.74,-8.18 -2.498,-18.792 2.346,-26.018 1.62,-2.416 4.926,-0.825 4.497,1.896 -1.407,8.915 0.415,18.277 1.706,27.125 1.486,10.183 3.675,20.277 6.024,30.292 4.504,19.21 11.633,37.948 19.099,56.169 7.612,18.578 16.504,36.624 25.611,54.504 4.696,9.219 9.434,18.416 13.92,27.74 4.22,8.771 9.284,18.294 11.183,27.895 1.252,6.33 -8.551,7.315 -8.484,1.148 0.028,-2.62 -0.178,-4.96 -1.016,-7.45 C -4.865,-0.671 -1.125,-2.254 0,0" /></g><g
           transform="translate(131.3096,403.0807)"
           id="g28"><path
             id="path30"
             style="fill:#231f20;fill-opacity:1;fill-rule:nonzero;stroke:none"
             d="m 0,0 c -8.88,2.162 -17.865,3.83 -26.549,6.736 -7.616,2.549 -18.023,7.052 -18.515,16.359 -0.283,5.361 3.148,10.602 5.857,14.938 3.935,6.296 9.072,11.774 14.459,16.839 10.542,9.912 22.928,17.759 35.32,25.123 56.457,33.549 120.127,53.162 186.044,54.397 25.42,0.477 54.7,-2.336 76.635,-16.384 10.22,-6.545 14.888,-16.609 10.639,-28.317 C 279.698,78.138 270.373,68.764 261.239,60.935 220.373,25.906 168.727,10.492 118.703,-6.188 c -6.711,-2.238 -3.783,-12.94 2.926,-10.614 29.889,10.362 60.036,20.154 88.188,34.791 12.979,6.749 25.151,14.918 37.03,23.427 10.988,7.87 21.506,16.514 30.066,27.035 7.197,8.845 14.115,20.547 13.03,32.367 -0.975,10.631 -9.639,18.098 -18.319,23.038 -25.992,14.792 -59.894,15.845 -88.94,14.222 C 118.909,134.515 58.209,114.851 3.679,81.906 -8.137,74.768 -19.568,66.874 -29.65,57.406 -37.963,49.598 -47.072,39.152 -49.67,27.737 -53.905,9.122 -29.924,2.469 -16.544,-0.74 -11.431,-1.967 -6.265,-2.958 -1.147,-4.162 1.558,-4.799 2.706,-0.659 0,0" /></g><g
           transform="translate(334.1748,369.4074)"
           id="g32"><path
             id="path34"
             style="fill:#231f20;fill-opacity:1;fill-rule:nonzero;stroke:none"
             d="m 0,0 c 6.159,3.552 7.687,13.977 3.426,19.499 -6.437,8.34 -15.905,1.378 -21.554,-3.915 -6.325,-5.926 -11.904,-12.954 -16.669,-20.183 -3.303,-5.009 -5.26,-11.099 -5.286,-17.088 -0.019,-4.317 4.86,-9.035 8.726,-5.169 4.521,4.52 9.228,10.395 13.828,15.405 4.203,4.578 11.185,14.191 17.959,14.839 1.585,0.152 0.965,-2.752 1.049,-3.809 0.127,-1.597 1.176,-3.232 2.568,-4.033 4.206,-2.42 8.848,-1.622 13.363,-0.481 5.783,1.462 11.268,4.416 16.398,7.37 C 38.94,5.39 44.425,8.68 47.957,13.513 48.555,14.331 47.56,15.62 46.616,15.256 41.173,13.159 36.533,9.302 31.562,6.277 25.874,2.815 19.797,-0.101 13.259,-1.488 11.951,-1.743 10.633,-1.857 9.305,-1.829 4.758,-1.921 5.611,1.226 5.617,3.517 5.621,4.857 4.989,5.898 3.98,6.694 2.23,8.074 0.108,8.061 -1.97,7.567 -8.484,6.02 -14.451,-0.341 -19.171,-4.693 c -3.157,-2.912 -6.215,-5.931 -9.309,-8.91 -1.555,-1.498 -5.351,-5.459 -7.256,-5.729 1.459,-0.386 2.919,-0.772 4.379,-1.158 l -0.12,0.118 c 0.448,-1.082 0.896,-2.163 1.344,-3.245 0.113,10.076 8.807,19.612 15.176,26.683 3.07,3.409 6.365,6.957 10.391,9.237 C -4.78,12.182 -5.277,14.21 -5.103,11.862 -5.004,10.524 -5.663,7.237 -5.623,7.288 -8.781,3.357 -4.852,-2.798 0,0" /></g><g
           transform="translate(386.3027,380.5013)"
           id="g36"><path
             id="path38"
             style="fill:#231f20;fill-opacity:1;fill-rule:nonzero;stroke:none"
             d="m 0,0 c -0.014,0.038 -0.028,0.075 -0.042,0.113 l -6.252,6.253 c -1.975,-5.858 -5.354,-12.333 -7.304,-18.656 -1.588,-5.151 -3.613,-17.266 5.373,-16.978 6.679,0.214 11.577,7.701 15.274,12.382 2.741,3.471 5.443,6.971 8.327,10.326 1.667,1.94 3.981,5.148 6.495,5.965 -1.851,1.051 -3.702,2.102 -5.553,3.153 1.248,-4.866 0.999,-9.398 4.286,-13.494 2.817,-3.511 8.954,-4.041 13.04,-3.372 10.214,1.671 18.965,8.233 26.823,14.586 21.035,17.004 39.201,37.835 55.087,59.61 7.457,10.221 14.687,20.79 21.016,31.757 3.043,5.273 8.25,13.52 5.496,19.775 -3.777,8.58 -18.018,-3.636 -21.082,-6.581 C 110.763,95.018 102.33,82.423 94.941,70.435 86.952,57.473 79.901,43.645 73.839,29.683 67.978,16.187 63.925,2.086 63.934,-12.723 c 0.021,-34.002 45.146,-22.727 66.145,-18.805 32.947,6.154 64.783,16.843 97.209,25.131 16.799,4.294 33.704,8.155 50.606,12.023 16.44,3.764 32.77,8.118 49.771,7.681 -0.385,1.421 -0.769,2.842 -1.154,4.263 -2.092,-1.451 -3.664,-3.47 -5.714,-4.977 -1.929,-1.419 -0.255,-4.53 1.917,-3.28 2.174,1.251 4,2.957 6.106,4.306 2.042,1.309 1.048,4.01 -1.155,4.263 -16.483,1.893 -33.193,-2.813 -49.193,-6.201 -17.684,-3.745 -35.359,-7.539 -52.99,-11.529 -34.8,-7.876 -69.299,-16.434 -104.473,-22.595 -8.239,-1.443 -16.498,-3.001 -24.861,-3.451 -6.288,-0.338 -18.198,-0.716 -20.877,6.491 -2.08,5.595 -1.022,13.069 -0.197,18.794 1.223,8.487 3.872,16.709 6.939,24.687 6.036,15.699 14.041,30.931 22.01,45.721 6.834,12.685 14.658,26.804 26.319,35.745 0.819,0.628 6.87,3.901 6.979,2.857 0.233,-2.22 -1.048,-4.836 -1.908,-6.803 -1.818,-4.162 -4.164,-8.15 -6.663,-11.937 C 116.609,71.26 104.099,53.366 89.444,36.841 78.966,25.025 67.354,13.657 55.034,3.744 49.379,-0.807 43.139,-5.029 36.1,-7.045 33.103,-7.903 30.203,-7.637 27.393,-6.338 24.667,-5.077 25.517,2.377 25.024,4.958 24.556,7.404 21.706,8.686 19.471,8.11 14.4,6.805 10.373,2.303 6.897,-1.341 2.16,-6.307 -2.2,-11.622 -6.992,-16.538 c -0.547,-0.561 -1.23,-1.265 -1.797,-1.68 -1.141,-0.834 4.493,-4.331 4.552,-2.054 0.071,2.755 1.35,5.756 2.194,8.35 C -0.345,-6.7 2.18,-1.671 3.509,3.663 4.359,7.074 1.043,11.421 -2.744,9.916 -4.057,9.395 -5.034,8.837 -6.094,7.898 -10.328,4.143 -4.583,-3.447 0,0" /></g><g
           transform="translate(628.175,479.1254)"
           id="g40"><path
             id="path42"
             style="fill:#231f20;fill-opacity:1;fill-rule:nonzero;stroke:none"
             d="m 0,0 c 0.229,0.502 0.489,0.987 0.779,1.456 3.2,5.496 -5.973,9.58 -8.086,3.409 -10.668,-31.147 -22.691,-61.824 -35.837,-92.02 -6.328,-14.536 -12.77,-29.06 -18.109,-43.996 -2.678,-7.491 -4.881,-15.099 -6.807,-22.814 -0.952,-3.817 -1.751,-7.667 -2.462,-11.535 -0.845,-4.598 -0.621,-8.248 -0.115,-12.774 0.338,-3.025 3.973,-3.44 5.129,-0.695 1.578,3.749 3.047,6.916 4.003,10.983 0.898,3.821 1.947,7.607 3.043,11.375 2.219,7.626 4.967,15.117 7.729,22.56 5.888,15.862 12.708,31.342 19.419,46.867 6.198,14.34 11.765,28.901 17.606,43.385 6.189,15.345 13.21,30.901 15.091,47.488 C -1.514,3.297 -4.411,2.905 -7.307,2.513 -7.075,1.979 -6.874,1.434 -6.706,0.876 -5.759,-1.914 -1.521,-3.033 0,0" /></g><g
           transform="translate(723.29,549.3405)"
           id="g44"><path
             id="path46"
             style="fill:#231f20;fill-opacity:1;fill-rule:nonzero;stroke:none"
             d="M 0,0 C -0.125,-0.089 -0.251,-0.178 -0.376,-0.267 -1.868,-0.074 -3.36,0.118 -4.851,0.31 -6.04,1.422 -5.604,3.732 -5.937,2.262 -6.109,1.5 -6.331,0.752 -6.502,-0.011 c -0.457,-2.036 -1,-4.055 -1.531,-6.073 -0.985,-3.747 -1.881,-7.526 -3.003,-11.233 -4.916,-16.238 -10.252,-32.344 -15.693,-48.411 -10.86,-32.068 -21.584,-64.267 -30.608,-96.906 -8.587,-31.059 -14.345,-62.687 -18.495,-94.625 -2.043,-15.719 -3.226,-31.514 -3.131,-47.372 0.089,-14.757 0.935,-30.764 6.603,-44.544 1.199,-2.914 6.232,-2.914 5.978,0.809 -1.045,15.309 -2.895,30.305 -2.57,45.7 0.351,16.657 2.325,33.32 4.665,49.8 4.688,33.017 11.144,65.417 20.343,97.49 9.538,33.257 20.919,65.955 31.648,98.836 4.427,13.567 10.048,27.668 12.24,41.812 C 0.589,-10.57 4.834,3.42 -0.376,6.111 -1.928,6.912 -3.553,6.692 -4.851,5.533 -5.211,5.212 -5.478,4.819 -5.695,4.394 -7.503,0.851 -2.915,-3.148 0,0" /></g><g
           transform="translate(756.4146,387.3224)"
           id="g48"><path
             id="path50"
             style="fill:#231f20;fill-opacity:1;fill-rule:nonzero;stroke:none"
             d="m 0,0 c 2.391,5.831 1.076,11.218 -3.918,15.024 -4.444,3.387 -11.436,0.848 -15.503,-1.732 -9.325,-5.916 -16.153,-16.635 -21.471,-26.066 -2.309,-4.095 -4.868,-9.032 -2.477,-13.621 2.327,-4.464 7.797,-2.613 10.888,-0.388 10.671,7.68 18.079,21.992 31.596,25.06 -1.081,0.824 -2.163,1.648 -3.245,2.472 0.425,-3.365 -1.156,-8.365 1.276,-11.199 2.918,-3.399 8.396,-2.022 12.032,-0.723 C 19.234,-7.578 30.379,1.358 36.793,9.8 37.868,11.216 35.847,12.875 34.49,12.103 27.387,8.069 21.766,1.708 14.969,-2.868 11.716,-5.058 8.234,-6.897 4.397,-7.783 -1.022,-9.035 1.271,-2.535 0.998,0.749 0.852,2.506 -0.52,3.537 -2.248,3.222 c -8.859,-1.615 -15.796,-8.227 -22.367,-13.915 -2.996,-2.593 -5.848,-5.506 -9.301,-7.495 -1.099,-0.633 -2.216,-1.168 -3.424,-1.552 -2.467,-0.371 -1.512,-1.858 2.865,-4.463 0.199,0.998 0.9,2.055 1.347,2.94 3.234,6.412 7.385,12.588 11.989,18.081 2.395,2.858 5.051,5.58 8.215,7.577 0.785,0.496 1.842,1.066 2.783,1.17 1.709,0.189 1.086,-3.068 0.984,-4.326 C -9.616,-4.462 -1.825,-4.449 0,0" /></g><g
           transform="translate(864.207,390.804)"
           id="g52"><path
             id="path54"
             style="fill:#231f20;fill-opacity:1;fill-rule:nonzero;stroke:none"
             d="M 0,0 C 10.028,3.018 32.254,10.715 28.637,24.586 26.016,34.639 14.096,27.22 9.688,23.475 4.121,18.744 -1.085,12.584 -5.037,6.41 -9.18,-0.062 -13.24,-9.049 -11.918,-16.899 c 1.531,-9.096 10.33,-9.375 17.379,-6.345 13.544,5.822 24.124,15.966 35.035,25.606 10.243,9.05 23.381,17.781 30.246,29.875 0.834,1.468 -1.189,3.121 -2.373,1.83 C 61.076,26.117 53.42,19.045 45.1,12.164 36.534,5.078 28.284,-2.426 19.062,-8.674 c -4.654,-3.153 -9.704,-5.78 -15.046,-7.535 -1.537,-0.505 -5.661,-1.612 -5.98,-0.805 -1.634,4.122 2.431,11.367 4.216,14.924 2.079,4.146 4.744,7.471 7.663,10.96 3.276,3.918 7.84,10.423 12.997,11.898 C 21.95,20.493 22.411,21.402 22.263,20.716 22.011,19.551 20.855,18.56 20.056,17.769 17.82,15.556 14.985,13.879 12.296,12.285 7.926,9.696 3.253,7.262 -1.503,5.452 -4.842,4.182 -3.553,-1.069 0,0" /></g><g
           transform="translate(934.5944,427.2856)"
           id="g56"><path
             id="path58"
             style="fill:#231f20;fill-opacity:1;fill-rule:nonzero;stroke:none"
             d="m 0,0 c -2.025,-4.265 -5.631,-8.937 -5.722,-13.861 -0.095,-5.084 1.943,-8.532 5.584,-11.946 9.583,-8.986 -10.799,-19.671 -16.308,-24.623 -3.654,-3.284 -0.638,-9.059 3.811,-9.199 11.448,-0.362 22.133,5.665 32.914,8.678 14.102,3.941 28.382,7.229 42.705,10.258 27.756,5.87 56.711,12.988 85.254,11.178 -1.762,2.312 -3.524,4.625 -5.286,6.938 -0.46,-1.767 -0.97,-3.485 -1.575,-5.208 -1.682,-4.795 4.983,-8.323 8.333,-4.85 2.065,2.141 3.066,4.271 3.813,7.144 0.939,3.611 -1.725,6.713 -5.285,6.938 -27.498,1.737 -55.195,-4.857 -81.974,-10.307 -14.37,-2.925 -28.673,-6.178 -42.854,-9.914 -11.7,-3.083 -23.863,-9.783 -36.045,-10.077 1.27,-3.067 2.54,-6.133 3.811,-9.2 6.668,6.701 14.187,13.782 15.395,23.651 0.52,4.253 -2.261,8.724 -4.181,12.266 -4.062,7.494 -0.976,13.04 1.279,20.587 C 4.311,0.602 0.988,2.08 0,0" /></g><g
           transform="translate(785.4991,287)"
           id="g60"><path
             id="path62"
             style="fill:#231f20;fill-opacity:1;fill-rule:nonzero;stroke:none"
             d="m 0,0 c -5.38,-11.966 -11.264,-23.708 -17.854,-35.052 -6.617,-11.389 -14.762,-24.916 -26.76,-31.347 -11.031,-5.913 -20.434,5.661 -24.976,14.846 -8.163,16.507 -2.31,35.742 6.479,51.553 h -4.879 c -10.819,-19.428 -16.369,-43.299 -3.08,-62.921 7.669,-11.325 18.716,-17.209 31.786,-11.348 12.83,5.753 21.943,19.668 29.159,31.088 C -1.5,-29.531 5.483,-14.83 11.891,0 Z" /></g><g
           transform="translate(866.3428,396.2037)"
           id="g64"><path
             id="path66"
             style="fill:#231f20;fill-opacity:1;fill-rule:nonzero;stroke:none"
             d="m 0,0 c -12.87,-3.147 -24.971,-9.13 -36.589,-15.594 1.554,6.212 2.995,12.456 4.298,18.736 0.905,4.365 1.184,8.379 -0.297,12.609 -1.078,3.079 -4.87,4.375 -7.345,1.939 -3.625,-3.567 -8.107,-6.439 -11.994,-9.732 -3.928,-3.328 -7.719,-6.821 -11.583,-10.223 -3.839,-3.38 -7.697,-6.732 -11.657,-9.969 -0.044,-0.036 -0.093,-0.077 -0.138,-0.114 0.316,0.608 0.63,1.218 0.947,1.825 1.74,3.333 4.419,7.122 5.069,10.889 0.778,4.508 -5.963,6.509 -6.951,1.917 -1.245,-5.791 -15.98,-20.632 -9.067,-26.305 5.875,-4.819 14.771,5.514 18.556,8.748 4.874,4.164 9.508,8.598 14.366,12.781 3.228,2.779 6.586,5.916 10.162,8.62 -0.887,-4.581 -2.184,-9.161 -3.173,-13.533 -1.186,-5.247 -2.624,-10.436 -4.145,-15.601 -12.673,-7.4 -25.139,-15.135 -37.195,-23.512 -8.433,-5.86 -16.685,-12.034 -24.492,-18.685 h 6.206 c 8.727,6.947 17.927,13.315 27.044,19.355 8.681,5.752 17.533,11.293 26.551,16.552 -0.445,-1.467 -0.891,-2.933 -1.336,-4.398 -1.842,-6.065 -3.694,-12.103 -5.729,-18.105 -1.52,-4.485 -3.101,-8.95 -4.711,-13.404 h 11.587 c 5.045,14.266 9.555,28.708 13.414,43.335 12.713,6.862 25.755,13.095 39.143,18.456 C 3.012,-2.583 2.27,0.555 0,0" /></g></g></g></g></svg>
