<svg xmlns="http://www.w3.org/2000/svg" height="1066.67" width="1600">
  <defs>
    <clipPath id="a">
      <path d="M0 800h1200V0H0z"/>
    </clipPath>
  </defs>
  <text style="-inkscape-font-specification:MyriadPro-Regular" transform="matrix(1.33333 0 0 1.33333 903.37 675.16)" font-weight="400" font-size="45.86" font-family="Myriad Pro" fill="#231f20">
    <tspan y="0" x="0 34.942501 75.387756 116.38329 148.4827 190.62463 230.79475 266.24167 304.85269 339.7952 379.91943">PHOTOGRAPHY</tspan>
  </text>
  <g clip-path="url(#a)" transform="matrix(1.33333 0 0 -1.33333 0 1066.67)">
    <path d="M297.27 472.43a21.64 21.64 0 0 0 4.33 6.1l-6.79 5.24c-5.16-8.74-8.67-18.7-13.15-27.84-4.54-9.3-9.38-18.44-14.14-27.62a697.4 697.4 0 0 1-26.47-57.1c-7.98-19.55-14.48-39.85-18.5-60.59a297.86 297.86 0 0 1-4.23-29.78c-.74-8.18-2.5-18.8 2.35-26.02 1.62-2.41 4.92-.82 4.5 1.9-1.41 8.91.4 18.28 1.7 27.12 1.49 10.19 3.67 20.28 6.02 30.3 4.5 19.2 11.64 37.94 19.1 56.16 7.61 18.58 16.5 36.63 25.61 54.5 4.7 9.23 9.44 18.42 13.92 27.75 4.22 8.77 9.29 18.3 11.19 27.9 1.25 6.32-8.55 7.3-8.49 1.14.03-2.62-.18-4.96-1.01-7.45-.8-2.38 2.93-3.97 4.06-1.71" fill="#231f20"/>
    <path d="M131.31 403.08c-8.88 2.16-17.87 3.83-26.55 6.74-7.62 2.55-18.02 7.05-18.51 16.36-.29 5.36 3.14 10.6 5.85 14.93 3.94 6.3 9.07 11.78 14.46 16.84 10.54 9.91 22.93 17.76 35.32 25.13 56.46 33.54 120.13 53.16 186.05 54.4 25.42.47 54.7-2.34 76.63-16.4 10.22-6.54 14.89-16.6 10.64-28.3-4.2-11.56-13.52-20.94-22.65-28.76-40.87-35.03-92.51-50.45-142.54-67.13-6.7-2.24-3.78-12.94 2.93-10.61 29.89 10.36 60.03 20.15 88.19 34.79 12.98 6.75 25.15 14.92 37.03 23.43 10.98 7.87 21.5 16.51 30.06 27.03 7.2 8.85 14.12 20.55 13.03 32.37-.97 10.63-9.64 18.1-18.32 23.04-25.99 14.79-59.89 15.84-88.94 14.22-63.77-3.56-124.47-23.23-179-56.17-11.82-7.14-23.25-15.04-33.33-24.5-8.31-7.81-17.42-18.26-20.02-29.67-4.24-18.62 19.75-25.27 33.13-28.48 5.1-1.23 10.27-2.22 15.4-3.42 2.7-.64 3.85 3.5 1.14 4.16M334.17 369.4c6.16 3.56 7.7 13.98 3.43 19.5-6.44 8.35-15.9 1.38-21.55-3.9-6.33-5.93-11.9-12.96-16.67-20.2-3.3-5-5.26-11.1-5.29-17.08-.02-4.32 4.86-9.03 8.73-5.17 4.52 4.52 9.23 10.4 13.83 15.4 4.2 4.58 11.18 14.2 17.95 14.85 1.59.15.97-2.76 1.05-3.81a5.38 5.38 0 0 1 2.57-4.04c4.2-2.42 8.85-1.62 13.36-.48 5.79 1.46 11.27 4.42 16.4 7.37 5.13 2.96 10.62 6.25 14.15 11.08.6.82-.4 2.1-1.34 1.74-5.44-2.1-10.08-5.95-15.05-8.98-5.7-3.46-11.77-6.37-18.3-7.76-1.31-.26-2.63-.37-3.96-.34-4.55-.1-3.7 3.05-3.69 5.34 0 1.34-.63 2.39-1.64 3.18-1.75 1.38-3.87 1.37-5.95.87-6.5-1.54-12.48-7.9-17.2-12.26-3.15-2.9-6.21-5.93-9.3-8.9-1.56-1.5-5.36-5.46-7.26-5.73 1.46-.4 2.92-.78 4.38-1.16l-.12.12 1.34-3.25c.11 10.08 8.8 19.61 15.18 26.68 3.07 3.41 6.36 6.96 10.39 9.24-.22-.12-.71 1.9-.54-.44.1-1.34-.56-4.63-.52-4.57-3.16-3.94.77-10.1 5.62-7.3" fill="#231f20"/>
    <path d="M386.3 380.5l-.04.11-6.25 6.26c-1.98-5.86-5.36-12.34-7.3-18.66-1.6-5.15-3.62-17.26 5.37-16.98 6.68.22 11.57 7.7 15.27 12.39 2.74 3.47 5.44 6.97 8.33 10.32 1.67 1.94 3.98 5.15 6.5 5.97l-5.56 3.15c1.25-4.87 1-9.4 4.29-13.5 2.81-3.5 8.95-4.04 13.04-3.37 10.21 1.67 18.96 8.24 26.82 14.59 21.03 17 39.2 37.83 55.09 59.6 7.45 10.23 14.68 20.8 21.01 31.77 3.05 5.27 8.25 13.52 5.5 19.77-3.78 8.58-18.02-3.63-21.08-6.58-10.22-9.82-18.66-22.42-26.05-34.4a323.76 323.76 0 0 1-21.1-40.76c-5.86-13.5-9.91-27.6-9.9-42.4.02-34 45.14-22.73 66.14-18.8 32.95 6.15 64.78 16.84 97.21 25.12 16.8 4.3 33.7 8.16 50.6 12.03 16.45 3.76 32.78 8.12 49.78 7.68l-1.16 4.26c-2.09-1.45-3.66-3.47-5.71-4.98-1.93-1.41-.26-4.53 1.92-3.28 2.17 1.26 4 2.96 6.1 4.31 2.04 1.3 1.05 4.01-1.15 4.26-16.49 1.9-33.2-2.81-49.2-6.2a3910.76 3910.76 0 0 1-52.99-11.53c-34.8-7.87-69.3-16.43-104.47-22.6-8.24-1.43-16.5-3-24.86-3.44-6.29-.34-18.2-.72-20.88 6.49-2.08 5.6-1.02 13.07-.2 18.8 1.23 8.48 3.88 16.7 6.95 24.68 6.03 15.7 14.04 30.93 22 45.72 6.84 12.69 14.66 26.8 26.32 35.75.82.62 6.87 3.9 6.98 2.85.24-2.22-1.04-4.83-1.9-6.8a80.28 80.28 0 0 0-6.67-11.94c-12.14-18.4-24.65-36.3-39.3-52.82a287.39 287.39 0 0 0-34.41-33.1c-5.66-4.55-11.9-8.77-18.94-10.78-3-.86-5.9-.6-8.7.7-2.73 1.26-1.88 8.72-2.37 11.3-.47 2.45-3.32 3.73-5.56 3.15-5.07-1.3-9.1-5.8-12.57-9.45-4.74-4.97-9.1-10.28-13.89-15.2-.55-.56-1.23-1.26-1.8-1.68-1.14-.83 4.5-4.33 4.56-2.05.07 2.75 1.35 5.76 2.19 8.35 1.7 5.22 4.22 10.25 5.55 15.58.85 3.42-2.46 7.76-6.25 6.26a10.53 10.53 0 0 1-3.35-2.02c-4.24-3.76 1.51-11.35 6.1-7.9" fill="#231f20"/>
    <path d="M628.17 479.13c.23.5.5.98.78 1.45 3.2 5.5-5.97 9.58-8.08 3.41a1225.23 1225.23 0 0 0-35.84-92.02c-6.33-14.54-12.77-29.06-18.1-44-2.69-7.49-4.89-15.1-6.82-22.81a188.3 188.3 0 0 1-2.46-11.53c-.84-4.6-.62-8.25-.11-12.78.34-3.02 3.97-3.44 5.13-.7 1.57 3.76 3.04 6.92 4 10.99.9 3.82 1.95 7.6 3.04 11.37a330.93 330.93 0 0 0 7.73 22.56c5.89 15.87 12.71 31.35 19.42 46.87 6.2 14.34 11.77 28.9 17.6 43.39 6.2 15.34 13.22 30.9 15.1 47.48l-8.7-1.17c.24-.54.44-1.08.6-1.64.96-2.79 5.2-3.9 6.71-.87M723.29 549.34l-.38-.27-4.47.58c-1.19 1.11-.75 3.42-1.09 1.95-.17-.76-.4-1.5-.56-2.27-.46-2.04-1-4.06-1.53-6.07-.99-3.75-1.88-7.53-3-11.24a1563.64 1563.64 0 0 0-15.7-48.4c-10.86-32.08-21.58-64.27-30.6-96.91-8.6-31.06-14.35-62.69-18.5-94.63a351.07 351.07 0 0 1-3.13-47.37c.09-14.76.93-30.76 6.6-44.54 1.2-2.92 6.23-2.92 5.98.8-1.05 15.31-2.9 30.31-2.57 45.7.35 16.66 2.32 33.32 4.66 49.8 4.7 33.02 11.15 65.42 20.35 97.5 9.53 33.25 20.91 65.95 31.64 98.83 4.43 13.57 10.05 27.67 12.24 41.81.65 4.16 4.9 18.15-.32 20.84a3.8 3.8 0 0 1-4.47-.58 3.82 3.82 0 0 1-.85-1.14c-1.8-3.54 2.78-7.54 5.7-4.39M756.41 387.32c2.4 5.83 1.08 11.22-3.91 15.03-4.45 3.38-11.44.84-15.5-1.74-9.33-5.91-16.16-16.63-21.48-26.06-2.3-4.1-4.87-9.03-2.47-13.62 2.32-4.47 7.8-2.62 10.88-.4 10.67 7.69 18.08 22 31.6 25.07l-3.25 2.47c.43-3.36-1.15-8.36 1.28-11.2 2.92-3.4 8.4-2.02 12.03-.72 10.06 3.6 21.2 12.53 27.62 20.97 1.07 1.42-.95 3.08-2.3 2.3-7.1-4.03-12.73-10.39-19.53-14.97-3.25-2.19-6.73-4.02-10.57-4.91-5.42-1.25-3.12 5.25-3.4 8.53-.14 1.76-1.52 2.79-3.24 2.47-8.86-1.61-15.8-8.22-22.37-13.91-3-2.6-5.85-5.5-9.3-7.5a17.38 17.38 0 0 0-3.43-1.55c-2.46-.37-1.5-1.86 2.87-4.46.2 1 .9 2.05 1.35 2.94a95.41 95.41 0 0 0 11.99 18.08c2.4 2.86 5.05 5.58 8.21 7.58.79.5 1.84 1.06 2.78 1.17 1.71.19 1.09-3.07.99-4.33-.46-5.7 7.33-5.69 9.15-1.24M864.2 390.8c10.03 3.02 32.26 10.72 28.64 24.59-2.62 10.05-14.54 2.63-18.94-1.11a78.61 78.61 0 0 1-14.73-17.07c-4.14-6.47-8.2-15.45-6.88-23.3 1.53-9.1 10.33-9.38 17.38-6.35 13.54 5.82 24.12 15.97 35.03 25.6 10.25 9.06 23.38 17.79 30.25 29.88.83 1.47-1.19 3.12-2.37 1.83a229.92 229.92 0 0 0-23.27-21.9c-8.57-7.09-16.82-14.6-26.04-20.84a60.87 60.87 0 0 0-15.05-7.54c-1.53-.5-5.66-1.6-5.98-.8-1.63 4.12 2.43 11.37 4.22 14.92 2.08 4.15 4.74 7.47 7.66 10.96 3.28 3.92 7.84 10.43 13 11.9-.96-.27-.5.64-.65-.05-.25-1.17-1.4-2.16-2.2-2.95-2.24-2.21-5.08-3.89-7.77-5.48a91.07 91.07 0 0 0-13.8-6.83c-3.34-1.27-2.05-6.53 1.5-5.46" fill="#231f20"/>
    <path d="M934.6 427.29c-2.03-4.27-5.64-8.94-5.73-13.87-.1-5.08 1.95-8.53 5.59-11.94 9.58-8.99-10.8-19.67-16.31-24.62-3.66-3.29-.64-9.06 3.8-9.2 11.46-.37 22.14 5.66 32.92 8.67a685.37 685.37 0 0 0 42.7 10.26c27.76 5.87 56.72 13 85.26 11.18l-5.28 6.94a65.15 65.15 0 0 0-1.58-5.2c-1.68-4.8 4.98-8.33 8.33-4.86 2.07 2.14 3.07 4.27 3.82 7.14.94 3.62-1.73 6.72-5.29 6.94-27.5 1.74-55.2-4.85-81.97-10.3A774.62 774.62 0 0 1 958 388.5c-11.7-3.08-23.86-9.78-36.04-10.08l3.81-9.2c6.67 6.7 14.19 13.79 15.4 23.66.52 4.25-2.27 8.72-4.19 12.26-4.06 7.5-.97 13.04 1.28 20.59.65 2.15-2.68 3.63-3.67 1.55M785.5 287a379.38 379.38 0 0 0-17.85-35.05c-6.62-11.4-14.77-24.92-26.76-31.35-11.04-5.91-20.44 5.66-24.98 14.85-8.16 16.5-2.31 35.74 6.48 51.55h-4.88c-10.82-19.43-16.37-43.3-3.08-62.92 7.67-11.33 18.72-17.21 31.79-11.35 12.83 5.75 21.94 19.67 29.15 31.09 8.63 13.65 15.61 28.35 22.02 43.18zM866.34 396.2c-12.87-3.14-24.97-9.13-36.59-15.59 1.56 6.21 3 12.46 4.3 18.74.9 4.36 1.19 8.37-.3 12.6-1.07 3.08-4.87 4.38-7.34 1.94-3.63-3.56-8.1-6.44-12-9.73-3.92-3.33-7.71-6.82-11.58-10.22-3.84-3.38-7.7-6.73-11.65-9.97l-.14-.11.94 1.82c1.74 3.33 4.42 7.12 5.07 10.89.78 4.5-5.96 6.5-6.95 1.92-1.24-5.8-15.98-20.64-9.06-26.3 5.87-4.83 14.77 5.5 18.55 8.74 4.88 4.16 9.51 8.6 14.37 12.78 3.23 2.78 6.58 5.92 10.16 8.62-.89-4.58-2.18-9.16-3.17-13.53a251.95 251.95 0 0 0-4.15-15.6 558.78 558.78 0 0 1-37.2-23.52A313.83 313.83 0 0 1 755.12 331h6.21a382.39 382.39 0 0 0 27.04 19.35 547.02 547.02 0 0 0 26.56 16.56l-1.34-4.4c-1.84-6.07-3.7-12.1-5.73-18.1a706.9 706.9 0 0 0-4.71-13.41h11.59a553.55 553.55 0 0 1 13.41 43.33 379.68 379.68 0 0 0 39.14 18.46c2.07.83 1.33 3.97-.94 3.41" fill="#231f20"/>
  </g>
</svg>
